<svg width="256" height="256" viewBox="0 0 24 24" fill="#0070BA" xmlns="http://www.w3.org/2000/svg">
  <path fill="#003087" d="M7.076 21.337H2.47a.641.641 0 0 1-.633-.74L4.944.901C5.026.382 5.474 0 5.998 0h7.46c2.57 0 4.578.543 5.69 1.81 1.01 1.15 1.304 2.42 1.012 4.287-.023.143-.047.288-.077.437-.983 5.05-4.349 6.797-8.647 6.797h-2.19c-.524 0-.968.382-1.05.9l-1.12 7.106z" />
  <path fill="#0079C1" d="M8.28 17.07l.82-5.186c.08-.518.525-.9 1.05-.9h2.19c3.48 0 6.136-1.22 6.84-4.836.024-.123.042-.25.06-.38.204-1.33.023-2.22-.646-2.984C17.75 1.8 16.2 1.39 14.16 1.39H7.21l-2.48 15.68h3.55z" />
</svg>
